<svg id="Layer_1" enable-background="new 0 0 512 512" height="512" viewBox="0 0 512 512" width="512" xmlns="http://www.w3.org/2000/svg"><g><path d="m256 22.004c-135.309 0-244.998 109.689-244.998 244.998 0 57.489 19.809 110.346 52.963 152.138l171.794 92.022c6.676.546 13.424.838 20.241.838 135.309 0 244.998-109.689 244.998-244.998s-109.689-244.998-244.998-244.998z" fill="#ffdd40"/><path d="m453.493 122.016c-44.597-60.645-116.443-100.012-197.493-100.012-95.811 0-178.762 55.005-219.035 135.152v219.692c7.563 15.052 16.632 29.216 27.008 42.297l171.785 92.018-.005.003c6.678.546 13.429.834 20.247.834 58.651 0 112.479-20.619 154.656-54.991 2.891-3.384 5.71-6.865 8.452-10.444 38.811-50.652 60.092-119.134 59.926-192.83-.105-46.611-9.123-92.165-25.541-131.719zm-169.05 221.367c-12.677 16.544-28.572 24.756-48.598 25.105-6.704.117-16.313.232-28.704.345-.195-64.212-.211-82.224-.241-116.969-.02-23.004-.047-53.271-.137-109.212h27.28c23.257 0 39.184 7.432 51.64 24.096 29.19 39.048 34.459 130.042-1.24 176.635z" fill="#ffc839"/><path d="m399.942 81.338c-40.129-53.682-98.611-81.338-165.898-81.338h-112.254c-31.254 0-57.825 25.008-57.825 58.238v360.902c10.472 13.201 22.284 25.288 35.218 36.075l30.205 21.548c31.515 19.063 67.666 31.233 106.371 34.399.889-.014 1.756-.028 2.58-.043 63.593-1.112 120.18-29.87 159.338-80.976 73.806-96.326 70.392-257.663 2.265-348.805zm-94.068 278.466c-17.76 23.18-41.162 35.184-69.556 35.68-10.392.182-26.432.338-43.032.464-7.204.055-13.08-5.759-13.102-12.963-.396-127.354-.172-92.29-.446-255.92-.011-6.299 5.093-11.414 11.392-11.414h42.913c31.731 0 55.696 11.425 73.265 34.93 36.433 48.738 41.538 153.138-1.434 209.223z" fill="#ff7186"/><path d="m431.02 138.272c-8.094-20.808-18.476-40.074-31.078-56.934-30.939-41.388-72.794-67.288-121.176-76.988-7.355 6.147-17.283 18.561-6.574 35.65l122.333 108.667s25.034 15.788 36.495-10.395z" fill="#f9a0b1"/><path d="m441.392 338.369c-1.025-1.088-2.494-1.753-4.114-1.695-15.78.568-22.815-9.605-25.436-15.038-.93-1.928-2.919-3.119-5.057-3.011-24.332 1.227-33.871-11.759-37.032-18.006-.955-1.888-2.979-2.985-5.09-2.837-20.592 1.451-27.835-11.647-29.784-16.441-.01.002.001 0-.009.002-3.432 29.307-12.796 57.318-28.996 78.463l.001-.001c-17.76 23.18-41.162 35.184-69.556 35.68-10.062.176-25.419.328-41.451.452-8.074.063-14.662-6.459-14.687-14.534-.306-98.503-.235-98.678-.323-173.019-.294.03-.587.081-.874.163-19.901 5.614-29.302-7.078-32.638-13.402-1.003-1.902-3.073-3.002-5.207-2.739-23.594 2.909-35.759-9.611-39.841-15.021-1.09-1.445-2.837-2.214-4.642-2.081-18.17 1.331-27.2-6.854-30.937-11.775-.478-.629-1.085-1.104-1.753-1.447v257.06c10.472 13.201 22.284 25.288 35.218 36.075l30.205 21.548c31.515 19.063 67.666 31.233 106.371 34.399.889-.014 1.756-.028 2.58-.043 63.593-1.112 120.18-29.87 159.338-80.976 20.369-26.587 34.845-58.129 43.714-91.776z" fill="#ff4155"/><path d="m369.827 408.804c64.77-84.534 60.289-228.498 2.013-306.459-32.892-44.002-80.541-67.259-137.795-67.259h-112.255c-12.066 0-22.763 9.567-22.74 23.139 0 .282 0 224.377-.001 396.033.001.296.014.59.027.883 9.571 7.992 19.757 15.27 30.484 21.746 20.571-.089 81.787-.386 108.165-.847 52.673-.922 99.587-24.799 132.102-67.236zm-132.895 21.761c-21.067.368-64.794.632-91.676.766-.594-175.738-.298-136.904-.683-350.765h89.472c42.953 0 77.058 16.489 101.367 49.009 45.703 61.139 50.983 182.825-1.686 251.568-24.251 31.649-57.722 48.739-96.794 49.422z" fill="#ff4155"/><path d="m406.864 318.62c-24.39 1.259-33.947-11.749-37.112-18.002-.45-.889-1.141-1.594-1.962-2.084-5.299 30.631-16.429 59.59-34.066 82.61-24.249 31.649-57.72 48.738-96.793 49.421-21.067.368-64.794.632-91.676.766-.458-135.496-.387-143.444-.507-237.996-1.037-.734-2.327-1.087-3.641-.926-23.568 2.893-35.724-9.612-39.808-15.022-.589-.78-1.372-1.356-2.249-1.707 0 79.588 0 186.607-.001 278.576.001.296.014.59.027.883 9.571 7.992 19.757 15.27 30.484 21.746 20.571-.089 81.787-.386 108.165-.847 52.672-.921 99.586-24.798 132.101-67.235 19.545-25.509 32.774-56.432 40.132-89.318-.899-.596-1.969-.923-3.094-.865z" fill="#e80054"/><circle cx="256" cy="312.088" fill="#fffbeb" r="8.25"/><circle cx="268.375" cy="251.875" fill="#fff2bd" r="12.375"/></g></svg>