<svg id="Layer_1" enable-background="new 0 0 512 512" height="512" viewBox="0 0 512 512" width="512" xmlns="http://www.w3.org/2000/svg"><g><path d="m256 22.004c-135.309 0-244.998 109.689-244.998 244.998 0 85.334 43.637 160.465 109.804 204.332l80.217 34.469c17.673 4.052 36.074 6.197 54.977 6.197 135.309 0 244.998-109.689 244.998-244.998s-109.689-244.998-244.998-244.998z" fill="#2a428c"/><path d="m323.903 168.41h-64.815v-27.776h77.642c37.431 0 69.203-24.666 79.933-58.595-43.014-37.394-99.193-60.035-160.663-60.035-63.337 0-121.059 24.036-164.546 63.482v363.032c9.175 8.322 18.99 15.948 29.351 22.817v-.001l80.195 34.459c11.851 2.718 24.028 4.582 36.465 5.512 13.43-14.869 21.623-34.556 21.623-56.123v-119.137h64.815c46.217 0 83.816-37.601 83.816-83.817s-37.599-83.818-83.816-83.818z" fill="#1c2e7a"/><path d="m336.73 113.634c31.623 0 57.295-25.969 56.81-57.7-.476-31.176-26.494-55.934-57.673-55.934h-160.597c-31.379 0-56.817 25.438-56.817 56.817v398.366c0 5.61.83 11.028 2.352 16.151 24.093 15.973 51.166 27.808 80.217 34.469 18.417-9.408 31.065-28.559 31.065-50.62v-137.614c0-4.708 3.816-8.524 8.524-8.524h82.429c31.179 0 57.197-24.758 57.673-55.933.485-31.732-25.187-57.701-56.81-57.701h-83.292c-4.708 0-8.524-3.816-8.524-8.524v-64.729c0-4.708 3.816-8.524 8.524-8.524z" fill="#50dd89"/><path d="m248 34.473c18.237 18.237 111.073 22.344 111.073 22.344s8.606 22.66 33.512 10.398c.678-3.652 1.013-7.423.954-11.282-.475-31.175-26.493-55.933-57.672-55.933h-87.867s-18.237 16.236 0 34.473z" fill="#70f2a4"/><path d="m323.903 195.411h-7.903s-15.865 18.608 0 34.473 30.247 22.344 30.247 22.344 6.891 23.248 33.328 11.237c.685-3.352 1.085-6.808 1.139-10.353.484-31.732-25.188-57.701-56.811-57.701z" fill="#70f2a4"/><path d="m120.806 471.334c24.093 15.973 51.166 27.808 80.217 34.469 18.417-9.408 31.065-28.559 31.065-50.62v-137.614c0-2.072.74-3.969 1.969-5.447l-.042-.065c-1.111-1.736-2.963-2.879-5.018-3.034-6.762-.51-22.829-4.335-29.915-28.503-.902-3.077-3.862-5.129-7.048-4.757-8.456.987-24.792-.362-36.703-21.477-1.384-2.454-4.125-3.859-6.898-3.36-7.219 1.299-21.452.414-29.979-22.979v227.236c-.001 5.61.83 11.028 2.352 16.151z" fill="#38c674"/><path d="m336.73 34.473h-161.46c-12.34 0-22.344 10.004-22.344 22.344v398.366c0 12.34 10.004 22.344 22.344 22.344s22.344-10.004 22.344-22.344v-180.612h126.289c12.34 0 22.344-10.004 22.344-22.344s-10.004-22.344-22.344-22.344h-126.289v-150.722h139.116c12.34 0 22.344-10.003 22.344-22.344s-10.004-22.344-22.344-22.344z" fill="#38c674"/><path d="m175.27 477.527c12.34 0 22.344-10.004 22.344-22.344v-177.284c-1.381-1.53-3.428-2.388-5.58-2.137-8.456.987-24.792-.362-36.703-21.477-.588-1.042-1.429-1.879-2.404-2.477v203.374c0 12.341 10.003 22.345 22.343 22.345z" fill="#1ba552"/><circle cx="314.149" cy="449.774" fill="#698dcc" r="8.25"/><circle cx="416.662" cy="153.153" fill="#698dcc" r="8.25"/><g fill="#5273ba"><ellipse cx="367" cy="387.271" rx="14.777" ry="14.777" transform="matrix(.214 -.977 .977 .214 -89.881 662.821)"/><ellipse cx="54.925" cy="238.124" rx="14.777" ry="14.777" transform="matrix(.924 -.383 .383 .924 -86.945 39.145)"/></g></g></svg>